<svg height="399pt" viewBox="0 0 399.32583 399" width="399pt" xmlns="http://www.w3.org/2000/svg"><path d="m398.746094 159.15625c-4.3125-37.609375-31.523438-68.585938-68.261719-77.714844-2.679687-.660156-5.390625.972656-6.050781 3.65625-.664063 2.679688.972656 5.390625 3.652344 6.054688 32.15625 7.976562 56.167968 34.796875 60.554687 67.636718 4.386719 32.835938-11.742187 65.019532-40.675781 81.160157-26.941406 14.636719-43.882813 42.679687-44.3125 73.335937v35.53125h-42.375c.933594-61 18.554687-101.554687 33.453125-124.957031.988281-1.507813 1.089843-3.429687.261719-5.03125-.824219-1.605469-2.449219-2.636719-4.25-2.707031-1.800782-.070313-3.5.835937-4.449219 2.371094-15.597657 24.515624-34.070313 66.882812-35.011719 130.324218h-46.628906v-178c0-2.761718-2.238282-5-5-5-2.761719 0-5 2.238282-5 5v178h-46.597656c-1.535157-104.402344-50.425782-150.730468-52.539063-152.675781-2.03125-1.871094-5.195313-1.742187-7.066406.289063-1.871094 2.03125-1.742188 5.195312.289062 7.066406.488281.445312 47.769531 45.25 49.316407 145.324218h-19.402344c-2.761719 0-5 2.238282-5 5 0 2.761719 2.238281 5 5 5h185v30.664063h-208v-76.199219c-.421875-30.664062-17.367188-58.707031-44.3125-73.347656-30.671875-17.109375-46.746094-52.097656-39.757813-86.515625 6.992188-34.414063 35.445313-60.355469 70.359375-64.148437 5.503906-.574219 11.050782-.597657 16.558594-.066407-3.042969 23.378907 2.144531 47.09375 14.679688 67.0625 1.464843 2.34375 4.554687 3.050781 6.894531 1.582031 2.339843-1.46875 3.046875-4.554687 1.578125-6.898437-22.601563-36.160156-17.386719-83.117187 12.59375-113.441406 29.984375-30.324219 76.875-36.070313 113.292968-13.882813 36.417969 22.1875 52.8125 66.496094 39.609376 107.046875-.816407 2.613281.621093 5.398438 3.226562 6.246094 2.601562.851563 5.40625-.554687 6.28125-3.152344 11.632812-35.683593 2.726562-74.875-23.1875-102.027343-25.914062-27.152344-64.644531-37.878907-100.832031-27.929688-36.191407 9.953125-63.992188 38.972656-72.378907 75.558594-6.429687-.6875-12.914062-.695313-19.347656-.023438-39.238281 4.25-71.21875 33.394532-79.089844 72.070313-7.871093 38.671875 10.179688 77.996093 44.632813 97.246093 23.789063 12.867188 38.777344 37.578126 39.199219 64.621094v81.203125c0 2.761719 2.238281 5 5 5h218c2.761718 0 5-2.238281 5-5v-81.203125c.421875-27.042968 15.410156-51.753906 39.203125-64.621094 31.929687-17.871093 50.019531-53.152343 45.890625-89.507812zm0 0"/><path d="m299.878906 207.816406c.996094.875 2.296875 1.316406 3.621094 1.230469s2.558594-.695313 3.433594-1.691406c2.203125-2.507813 3.574218-3.796875 3.648437-3.867188 1.96875-1.886719 2.066407-5 .222657-7.003906-1.847657-2.003906-4.960938-2.160156-7-.347656-.175782.160156-1.78125 1.65625-4.398438 4.625-1.816406 2.078125-1.605469 5.238281.472656 7.054687zm0 0"/></svg>